<svg id="visual" viewBox="0 0 900 250" width="900" height="250" xmlns="http://www.w3.org/2000/svg" xmlns:xlink="http://www.w3.org/1999/xlink" version="1.1"><rect x="0" y="0" width="900" height="250" fill="#F7F7F7"></rect><path d="M0 68L25 76.8C50 85.7 100 103.3 150 115.5C200 127.7 250 134.3 300 123.5C350 112.7 400 84.3 450 79.8C500 75.3 550 94.7 600 98.5C650 102.3 700 90.7 750 92.7C800 94.7 850 110.3 875 118.2L900 126L900 251L875 251C850 251 800 251 750 251C700 251 650 251 600 251C550 251 500 251 450 251C400 251 350 251 300 251C250 251 200 251 150 251C100 251 50 251 25 251L0 251Z" fill="#0062cf"></path><path d="M0 123L25 124.5C50 126 100 129 150 121C200 113 250 94 300 86.7C350 79.3 400 83.7 450 93.7C500 103.7 550 119.3 600 122C650 124.7 700 114.3 750 116.8C800 119.3 850 134.7 875 142.3L900 150L900 251L875 251C850 251 800 251 750 251C700 251 650 251 600 251C550 251 500 251 450 251C400 251 350 251 300 251C250 251 200 251 150 251C100 251 50 251 25 251L0 251Z" fill="#005ab5"></path><path d="M0 169L25 160.5C50 152 100 135 150 134.3C200 133.7 250 149.3 300 149.5C350 149.7 400 134.3 450 134C500 133.7 550 148.3 600 149.2C650 150 700 137 750 128.7C800 120.3 850 116.7 875 114.8L900 113L900 251L875 251C850 251 800 251 750 251C700 251 650 251 600 251C550 251 500 251 450 251C400 251 350 251 300 251C250 251 200 251 150 251C100 251 50 251 25 251L0 251Z" fill="#00519a"></path><path d="M0 146L25 148.5C50 151 100 156 150 162C200 168 250 175 300 177.3C350 179.7 400 177.3 450 169C500 160.7 550 146.3 600 144.5C650 142.7 700 153.3 750 161.7C800 170 850 176 875 179L900 182L900 251L875 251C850 251 800 251 750 251C700 251 650 251 600 251C550 251 500 251 450 251C400 251 350 251 300 251C250 251 200 251 150 251C100 251 50 251 25 251L0 251Z" fill="#004880"></path><path d="M0 169L25 166.2C50 163.3 100 157.7 150 160.5C200 163.3 250 174.7 300 175.2C350 175.7 400 165.3 450 160.8C500 156.3 550 157.7 600 161.7C650 165.7 700 172.3 750 172.2C800 172 850 165 875 161.5L900 158L900 251L875 251C850 251 800 251 750 251C700 251 650 251 600 251C550 251 500 251 450 251C400 251 350 251 300 251C250 251 200 251 150 251C100 251 50 251 25 251L0 251Z" fill="#123e66"></path><path d="M0 187L25 191.2C50 195.3 100 203.7 150 205.5C200 207.3 250 202.7 300 203C350 203.3 400 208.7 450 208.7C500 208.7 550 203.3 600 202.8C650 202.3 700 206.7 750 207.5C800 208.3 850 205.7 875 204.3L900 203L900 251L875 251C850 251 800 251 750 251C700 251 650 251 600 251C550 251 500 251 450 251C400 251 350 251 300 251C250 251 200 251 150 251C100 251 50 251 25 251L0 251Z" fill="#1c344d"></path><path d="M0 218L25 217.2C50 216.3 100 214.7 150 216C200 217.3 250 221.7 300 220.8C350 220 400 214 450 214.2C500 214.3 550 220.7 600 223C650 225.3 700 223.7 750 222.7C800 221.7 850 221.3 875 221.2L900 221L900 251L875 251C850 251 800 251 750 251C700 251 650 251 600 251C550 251 500 251 450 251C400 251 350 251 300 251C250 251 200 251 150 251C100 251 50 251 25 251L0 251Z" fill="#202a35"></path></svg>